<svg xmlns="http://www.w3.org/2000/svg" xmlns:xlink="http://www.w3.org/1999/xlink" version="1.1" x="0px" y="0px" viewBox="0 0 100 125" enable-background="new 0 0 100 100" xml:space="preserve"><path d="M63.117,82.571l10.576-18.316c-2.133,0.205-4.195,0.308-6.059,0.319c-0.937,0.002-1.723-0.636-1.939-1.501  c0.075,0.01,0.165,0.015,0.245,0.015c10.079-0.058,25.183-2.897,27.165-8.97c1.183-3.589-0.666-6.389-5.469-8.329  c-0.021-0.001-0.03-0.006-0.047-0.017c-0.771-0.306-1.645,0.067-1.95,0.837c-0.101,0.254-0.13,0.525-0.092,0.779l-0.001,0.021  c0.09,0.503,0.422,0.948,0.93,1.149c3.412,1.369,4.017,2.724,3.971,3.701c-0.012,0.362-0.111,0.675-0.193,0.916  c-0.773,2.356-6.461,4.658-13.585,5.923l8.098-14.026c1.616-2.799,0.657-6.377-2.142-7.993L45.129,15.433  c-2.8-1.616-6.377-0.658-7.994,2.142L17.74,51.167c-4.928-1.483-7.242-3.395-7.261-5.076c0.001-0.081,0.006-0.171,0.021-0.255  c0.238-1.975,3.648-4.602,10.897-6.236c0.249-0.052,0.467-0.169,0.643-0.333c0.405-0.343,0.614-0.905,0.487-1.463  c-0.18-0.809-0.984-1.317-1.797-1.13c-4.459,1.006-7.92,2.438-10.178,4.17c-0.006,0.009-0.006,0.009-0.019,0.012  c-1.021,0.786-1.792,1.623-2.306,2.514c-0.506,0.875-0.758,1.792-0.748,2.755c0.033,4.419,5.857,7.756,16.146,9.408  c0.018-2.634,1.754-5.042,4.422-5.756c3.2-0.856,6.491,1.043,7.349,4.243c0.857,3.203-1.043,6.491-4.242,7.349  c-3.159,0.846-6.393-0.996-7.303-4.12c-3.307-0.44-6.166-1.038-8.566-1.783c-1.316,2.731-0.327,6.058,2.344,7.599l37.496,21.649  C57.924,86.328,61.502,85.369,63.117,82.571z M38.831,31.1c-0.856-3.201,1.042-6.491,4.243-7.349  c3.202-0.858,6.49,1.042,7.348,4.243c0.858,3.202-1.039,6.491-4.242,7.349C42.98,36.199,39.689,34.301,38.831,31.1z M64.857,46.125  c-0.858-3.199,1.041-6.491,4.242-7.349c3.201-0.857,6.49,1.042,7.349,4.243c0.857,3.203-1.042,6.49-4.243,7.349  C69.004,51.226,65.715,49.328,64.857,46.125z M31.318,44.112c-0.856-3.201,1.041-6.492,4.243-7.35  c3.2-0.856,6.491,1.044,7.349,4.243c0.857,3.204-1.043,6.491-4.243,7.35C35.465,49.213,32.177,47.314,31.318,44.112z M57.346,59.139  c-0.857-3.201,1.041-6.492,4.242-7.35c3.201-0.856,6.49,1.043,7.349,4.243c0.856,3.203-1.042,6.491-4.243,7.35  C61.492,64.239,58.203,62.34,57.346,59.139z M49.831,72.151c-0.856-3.201,1.043-6.492,4.243-7.349  c3.201-0.857,6.49,1.042,7.348,4.243c0.858,3.202-1.039,6.49-4.242,7.349C53.979,77.251,50.689,75.353,49.831,72.151z"/><text x="0" y="115" fill="#000000" font-size="5px" font-weight="bold" font-family="'Helvetica Neue', Helvetica, Arial-Unicode, Arial, Sans-serif">Created by dyu</text><text x="0" y="120" fill="#000000" font-size="5px" font-weight="bold" font-family="'Helvetica Neue', Helvetica, Arial-Unicode, Arial, Sans-serif">from the Noun Project</text></svg>